<mxfile host="app.diagrams.net" agent="Mozilla/5.0 (X11; Linux x86_64) AppleWebKit/537.36 (KHTML, like Gecko) Chrome/136.0.0.0 Safari/537.36" version="27.0.6">
  <diagram name="Page-1" id="FGHnEIgJXAa2tAWAKle5">
    <mxGraphModel dx="2489" dy="1074" grid="1" gridSize="10" guides="1" tooltips="1" connect="1" arrows="1" fold="1" page="1" pageScale="1" pageWidth="850" pageHeight="1100" math="0" shadow="0">
      <root>
        <mxCell id="0" />
        <mxCell id="1" parent="0" />
        <mxCell id="5zTkcHhDiUD0QSWI-N54-64" value="" style="rounded=1;whiteSpace=wrap;html=1;arcSize=1;strokeColor=#000000;movable=0;resizable=0;rotatable=0;deletable=0;editable=0;locked=1;connectable=0;" vertex="1" parent="1">
          <mxGeometry x="-810" y="145" width="770" height="740" as="geometry" />
        </mxCell>
        <mxCell id="gIwlXGtRDfr9pe6k1q0f-52" value="" style="rounded=0;whiteSpace=wrap;html=1;movable=0;resizable=0;rotatable=0;deletable=0;editable=0;locked=1;connectable=0;" parent="1" vertex="1">
          <mxGeometry x="230" y="27.5" width="430" height="260" as="geometry" />
        </mxCell>
        <mxCell id="gIwlXGtRDfr9pe6k1q0f-53" value="&lt;font style=&quot;font-size: 14px;&quot;&gt;UC-1 Register account use case diagram&lt;/font&gt;" style="text;html=1;align=center;verticalAlign=middle;resizable=0;points=[];autosize=1;strokeColor=none;fillColor=none;fontStyle=1;movable=0;rotatable=0;deletable=0;editable=0;locked=1;connectable=0;" parent="1" vertex="1">
          <mxGeometry x="305" y="37.5" width="280" height="30" as="geometry" />
        </mxCell>
        <mxCell id="gIwlXGtRDfr9pe6k1q0f-58" style="rounded=0;orthogonalLoop=1;jettySize=auto;html=1;exitX=1;exitY=0;exitDx=0;exitDy=0;entryX=0;entryY=0.5;entryDx=0;entryDy=0;dashed=1;dashPattern=8 8;movable=0;resizable=0;rotatable=0;deletable=0;editable=0;locked=1;connectable=0;" parent="1" source="gIwlXGtRDfr9pe6k1q0f-55" target="gIwlXGtRDfr9pe6k1q0f-56" edge="1">
          <mxGeometry relative="1" as="geometry" />
        </mxCell>
        <mxCell id="gIwlXGtRDfr9pe6k1q0f-59" style="rounded=0;orthogonalLoop=1;jettySize=auto;html=1;exitX=1;exitY=1;exitDx=0;exitDy=0;entryX=0;entryY=0.5;entryDx=0;entryDy=0;dashed=1;dashPattern=8 8;movable=0;resizable=0;rotatable=0;deletable=0;editable=0;locked=1;connectable=0;" parent="1" source="gIwlXGtRDfr9pe6k1q0f-55" target="gIwlXGtRDfr9pe6k1q0f-57" edge="1">
          <mxGeometry relative="1" as="geometry" />
        </mxCell>
        <mxCell id="gIwlXGtRDfr9pe6k1q0f-55" value="Register new account" style="ellipse;whiteSpace=wrap;html=1;movable=0;resizable=0;rotatable=0;deletable=0;editable=0;locked=1;connectable=0;" parent="1" vertex="1">
          <mxGeometry x="250" y="142.5" width="160" height="60" as="geometry" />
        </mxCell>
        <mxCell id="gIwlXGtRDfr9pe6k1q0f-56" value="Enter user&#39;s information" style="ellipse;whiteSpace=wrap;html=1;movable=0;resizable=0;rotatable=0;deletable=0;editable=0;locked=1;connectable=0;" parent="1" vertex="1">
          <mxGeometry x="470" y="82.5" width="160" height="60" as="geometry" />
        </mxCell>
        <mxCell id="gIwlXGtRDfr9pe6k1q0f-57" value="Validate information" style="ellipse;whiteSpace=wrap;html=1;movable=0;resizable=0;rotatable=0;deletable=0;editable=0;locked=1;connectable=0;" parent="1" vertex="1">
          <mxGeometry x="465" y="202.5" width="160" height="60" as="geometry" />
        </mxCell>
        <mxCell id="gIwlXGtRDfr9pe6k1q0f-60" value="&amp;lt;&amp;lt; include &amp;gt;&amp;gt;" style="text;html=1;align=center;verticalAlign=middle;resizable=0;points=[];autosize=1;strokeColor=none;fillColor=none;rotation=0;movable=0;rotatable=0;deletable=0;editable=0;locked=1;connectable=0;" parent="1" vertex="1">
          <mxGeometry x="345.004036301247" y="97.50004713111161" width="100" height="30" as="geometry" />
        </mxCell>
        <mxCell id="gIwlXGtRDfr9pe6k1q0f-61" value="&amp;lt;&amp;lt; include &amp;gt;&amp;gt;" style="text;html=1;align=center;verticalAlign=middle;resizable=0;points=[];autosize=1;strokeColor=none;fillColor=none;rotation=0;movable=0;rotatable=0;deletable=0;editable=0;locked=1;connectable=0;" parent="1" vertex="1">
          <mxGeometry x="345" y="212.5" width="100" height="30" as="geometry" />
        </mxCell>
        <mxCell id="gIwlXGtRDfr9pe6k1q0f-63" style="edgeStyle=orthogonalEdgeStyle;rounded=0;orthogonalLoop=1;jettySize=auto;html=1;entryX=0;entryY=0.5;entryDx=0;entryDy=0;movable=0;resizable=0;rotatable=0;deletable=0;editable=0;locked=1;connectable=0;" parent="1" source="gIwlXGtRDfr9pe6k1q0f-62" target="gIwlXGtRDfr9pe6k1q0f-55" edge="1">
          <mxGeometry relative="1" as="geometry" />
        </mxCell>
        <mxCell id="gIwlXGtRDfr9pe6k1q0f-62" value="User" style="shape=umlActor;verticalLabelPosition=bottom;verticalAlign=top;html=1;outlineConnect=0;movable=0;resizable=0;rotatable=0;deletable=0;editable=0;locked=1;connectable=0;" parent="1" vertex="1">
          <mxGeometry x="150" y="142.5" width="30" height="60" as="geometry" />
        </mxCell>
        <mxCell id="gIwlXGtRDfr9pe6k1q0f-64" value="" style="rounded=0;whiteSpace=wrap;html=1;movable=0;resizable=0;rotatable=0;deletable=0;editable=0;locked=1;connectable=0;" parent="1" vertex="1">
          <mxGeometry x="230" y="312.5" width="430" height="250" as="geometry" />
        </mxCell>
        <mxCell id="gIwlXGtRDfr9pe6k1q0f-65" value="&lt;font style=&quot;font-size: 14px;&quot;&gt;UC-2 Login use case diagram&lt;/font&gt;" style="text;html=1;align=center;verticalAlign=middle;resizable=0;points=[];autosize=1;strokeColor=none;fillColor=none;fontStyle=1;movable=0;rotatable=0;deletable=0;editable=0;locked=1;connectable=0;" parent="1" vertex="1">
          <mxGeometry x="340" y="322.5" width="210" height="30" as="geometry" />
        </mxCell>
        <mxCell id="gIwlXGtRDfr9pe6k1q0f-66" style="rounded=0;orthogonalLoop=1;jettySize=auto;html=1;exitX=1;exitY=0;exitDx=0;exitDy=0;entryX=0;entryY=0.5;entryDx=0;entryDy=0;dashed=1;dashPattern=8 8;movable=0;resizable=0;rotatable=0;deletable=0;editable=0;locked=1;connectable=0;" parent="1" source="gIwlXGtRDfr9pe6k1q0f-68" target="gIwlXGtRDfr9pe6k1q0f-69" edge="1">
          <mxGeometry relative="1" as="geometry" />
        </mxCell>
        <mxCell id="gIwlXGtRDfr9pe6k1q0f-67" style="rounded=0;orthogonalLoop=1;jettySize=auto;html=1;exitX=1;exitY=1;exitDx=0;exitDy=0;entryX=0;entryY=0.5;entryDx=0;entryDy=0;dashed=1;dashPattern=8 8;movable=0;resizable=0;rotatable=0;deletable=0;editable=0;locked=1;connectable=0;" parent="1" source="gIwlXGtRDfr9pe6k1q0f-68" target="gIwlXGtRDfr9pe6k1q0f-70" edge="1">
          <mxGeometry relative="1" as="geometry" />
        </mxCell>
        <mxCell id="gIwlXGtRDfr9pe6k1q0f-68" value="Login" style="ellipse;whiteSpace=wrap;html=1;movable=0;resizable=0;rotatable=0;deletable=0;editable=0;locked=1;connectable=0;" parent="1" vertex="1">
          <mxGeometry x="275" y="422.5" width="110" height="60" as="geometry" />
        </mxCell>
        <mxCell id="gIwlXGtRDfr9pe6k1q0f-69" value="Enter user&#39;s information" style="ellipse;whiteSpace=wrap;html=1;movable=0;resizable=0;rotatable=0;deletable=0;editable=0;locked=1;connectable=0;" parent="1" vertex="1">
          <mxGeometry x="470" y="362.5" width="160" height="60" as="geometry" />
        </mxCell>
        <mxCell id="gIwlXGtRDfr9pe6k1q0f-70" value="Validate information" style="ellipse;whiteSpace=wrap;html=1;movable=0;resizable=0;rotatable=0;deletable=0;editable=0;locked=1;connectable=0;" parent="1" vertex="1">
          <mxGeometry x="465" y="482.5" width="160" height="60" as="geometry" />
        </mxCell>
        <mxCell id="gIwlXGtRDfr9pe6k1q0f-71" value="&amp;lt;&amp;lt; include &amp;gt;&amp;gt;" style="text;html=1;align=center;verticalAlign=middle;resizable=0;points=[];autosize=1;strokeColor=none;fillColor=none;rotation=0;movable=0;rotatable=0;deletable=0;editable=0;locked=1;connectable=0;" parent="1" vertex="1">
          <mxGeometry x="345.00403630124697" y="377.5000471311116" width="100" height="30" as="geometry" />
        </mxCell>
        <mxCell id="gIwlXGtRDfr9pe6k1q0f-73" style="rounded=0;orthogonalLoop=1;jettySize=auto;html=1;entryX=0;entryY=0;entryDx=0;entryDy=0;movable=0;resizable=0;rotatable=0;deletable=0;editable=0;locked=1;connectable=0;" parent="1" source="gIwlXGtRDfr9pe6k1q0f-74" target="gIwlXGtRDfr9pe6k1q0f-68" edge="1">
          <mxGeometry relative="1" as="geometry" />
        </mxCell>
        <mxCell id="gIwlXGtRDfr9pe6k1q0f-74" value="User" style="shape=umlActor;verticalLabelPosition=bottom;verticalAlign=top;html=1;outlineConnect=0;movable=0;resizable=0;rotatable=0;deletable=0;editable=0;locked=1;connectable=0;" parent="1" vertex="1">
          <mxGeometry x="150" y="312.5" width="30" height="60" as="geometry" />
        </mxCell>
        <mxCell id="gIwlXGtRDfr9pe6k1q0f-76" value="" style="rounded=0;whiteSpace=wrap;html=1;movable=0;resizable=0;rotatable=0;deletable=0;editable=0;locked=1;connectable=0;" parent="1" vertex="1">
          <mxGeometry x="230" y="800" width="430" height="250" as="geometry" />
        </mxCell>
        <mxCell id="gIwlXGtRDfr9pe6k1q0f-77" value="&lt;font style=&quot;font-size: 14px;&quot;&gt;UC-4 Mange profile use case diagram&lt;/font&gt;" style="text;html=1;align=center;verticalAlign=middle;resizable=0;points=[];autosize=1;strokeColor=none;fillColor=none;fontStyle=1;movable=0;rotatable=0;deletable=0;editable=0;locked=1;connectable=0;" parent="1" vertex="1">
          <mxGeometry x="315" y="810" width="260" height="30" as="geometry" />
        </mxCell>
        <mxCell id="gIwlXGtRDfr9pe6k1q0f-78" style="rounded=0;orthogonalLoop=1;jettySize=auto;html=1;exitX=1;exitY=0;exitDx=0;exitDy=0;entryX=0;entryY=0.5;entryDx=0;entryDy=0;dashed=1;dashPattern=8 8;movable=0;resizable=0;rotatable=0;deletable=0;editable=0;locked=1;connectable=0;" parent="1" source="gIwlXGtRDfr9pe6k1q0f-80" target="gIwlXGtRDfr9pe6k1q0f-81" edge="1">
          <mxGeometry relative="1" as="geometry" />
        </mxCell>
        <mxCell id="gIwlXGtRDfr9pe6k1q0f-79" style="rounded=0;orthogonalLoop=1;jettySize=auto;html=1;exitX=1;exitY=1;exitDx=0;exitDy=0;entryX=0;entryY=0.5;entryDx=0;entryDy=0;dashed=1;dashPattern=8 8;movable=0;resizable=0;rotatable=0;deletable=0;editable=0;locked=1;connectable=0;" parent="1" source="gIwlXGtRDfr9pe6k1q0f-80" target="gIwlXGtRDfr9pe6k1q0f-82" edge="1">
          <mxGeometry relative="1" as="geometry" />
        </mxCell>
        <mxCell id="gIwlXGtRDfr9pe6k1q0f-80" value="Manage profile" style="ellipse;whiteSpace=wrap;html=1;movable=0;resizable=0;rotatable=0;deletable=0;editable=0;locked=1;connectable=0;" parent="1" vertex="1">
          <mxGeometry x="270" y="910" width="120" height="60" as="geometry" />
        </mxCell>
        <mxCell id="gIwlXGtRDfr9pe6k1q0f-81" value="Update user&#39;s information" style="ellipse;whiteSpace=wrap;html=1;movable=0;resizable=0;rotatable=0;deletable=0;editable=0;locked=1;connectable=0;" parent="1" vertex="1">
          <mxGeometry x="470" y="850" width="160" height="60" as="geometry" />
        </mxCell>
        <mxCell id="gIwlXGtRDfr9pe6k1q0f-82" value="Update avatar" style="ellipse;whiteSpace=wrap;html=1;movable=0;resizable=0;rotatable=0;deletable=0;editable=0;locked=1;connectable=0;" parent="1" vertex="1">
          <mxGeometry x="465" y="970" width="160" height="60" as="geometry" />
        </mxCell>
        <mxCell id="gIwlXGtRDfr9pe6k1q0f-83" value="&amp;lt;&amp;lt; include &amp;gt;&amp;gt;" style="text;html=1;align=center;verticalAlign=middle;resizable=0;points=[];autosize=1;strokeColor=none;fillColor=none;rotation=0;movable=0;rotatable=0;deletable=0;editable=0;locked=1;connectable=0;" parent="1" vertex="1">
          <mxGeometry x="345.00403630124697" y="865.0000471311116" width="100" height="30" as="geometry" />
        </mxCell>
        <mxCell id="gIwlXGtRDfr9pe6k1q0f-84" value="&amp;lt;&amp;lt; include &amp;gt;&amp;gt;" style="text;html=1;align=center;verticalAlign=middle;resizable=0;points=[];autosize=1;strokeColor=none;fillColor=none;rotation=0;movable=0;rotatable=0;deletable=0;editable=0;locked=1;connectable=0;" parent="1" vertex="1">
          <mxGeometry x="345" y="980" width="100" height="30" as="geometry" />
        </mxCell>
        <mxCell id="gIwlXGtRDfr9pe6k1q0f-85" style="edgeStyle=orthogonalEdgeStyle;rounded=0;orthogonalLoop=1;jettySize=auto;html=1;entryX=0;entryY=0.5;entryDx=0;entryDy=0;movable=0;resizable=0;rotatable=0;deletable=0;editable=0;locked=1;connectable=0;" parent="1" source="gIwlXGtRDfr9pe6k1q0f-86" target="gIwlXGtRDfr9pe6k1q0f-80" edge="1">
          <mxGeometry relative="1" as="geometry" />
        </mxCell>
        <mxCell id="gIwlXGtRDfr9pe6k1q0f-86" value="User" style="shape=umlActor;verticalLabelPosition=bottom;verticalAlign=top;html=1;outlineConnect=0;movable=0;resizable=0;rotatable=0;deletable=0;editable=0;locked=1;connectable=0;" parent="1" vertex="1">
          <mxGeometry x="150" y="910" width="30" height="60" as="geometry" />
        </mxCell>
        <mxCell id="gIwlXGtRDfr9pe6k1q0f-87" value="" style="rounded=0;whiteSpace=wrap;html=1;movable=0;resizable=0;rotatable=0;deletable=0;editable=0;locked=1;connectable=0;" parent="1" vertex="1">
          <mxGeometry x="230" y="586.25" width="430" height="190" as="geometry" />
        </mxCell>
        <mxCell id="gIwlXGtRDfr9pe6k1q0f-88" value="&lt;font style=&quot;font-size: 14px;&quot;&gt;UC-3 Logout use case diagram&lt;/font&gt;" style="text;html=1;align=center;verticalAlign=middle;resizable=0;points=[];autosize=1;strokeColor=none;fillColor=none;fontStyle=1;movable=0;rotatable=0;deletable=0;editable=0;locked=1;connectable=0;" parent="1" vertex="1">
          <mxGeometry x="335" y="596.25" width="220" height="30" as="geometry" />
        </mxCell>
        <mxCell id="gIwlXGtRDfr9pe6k1q0f-89" style="rounded=0;orthogonalLoop=1;jettySize=auto;html=1;exitX=1;exitY=0.5;exitDx=0;exitDy=0;entryX=0;entryY=0.5;entryDx=0;entryDy=0;dashed=1;dashPattern=8 8;movable=0;resizable=0;rotatable=0;deletable=0;editable=0;locked=1;connectable=0;" parent="1" source="gIwlXGtRDfr9pe6k1q0f-91" target="gIwlXGtRDfr9pe6k1q0f-92" edge="1">
          <mxGeometry relative="1" as="geometry" />
        </mxCell>
        <mxCell id="gIwlXGtRDfr9pe6k1q0f-91" value="Logout" style="ellipse;whiteSpace=wrap;html=1;movable=0;resizable=0;rotatable=0;deletable=0;editable=0;locked=1;connectable=0;" parent="1" vertex="1">
          <mxGeometry x="270" y="662.5" width="100" height="60" as="geometry" />
        </mxCell>
        <mxCell id="gIwlXGtRDfr9pe6k1q0f-92" value="Delete all credentials" style="ellipse;whiteSpace=wrap;html=1;movable=0;resizable=0;rotatable=0;deletable=0;editable=0;locked=1;connectable=0;" parent="1" vertex="1">
          <mxGeometry x="490" y="662.5" width="160" height="60" as="geometry" />
        </mxCell>
        <mxCell id="gIwlXGtRDfr9pe6k1q0f-94" value="&amp;lt;&amp;lt; include &amp;gt;&amp;gt;" style="text;html=1;align=center;verticalAlign=middle;resizable=0;points=[];autosize=1;strokeColor=none;fillColor=none;rotation=0;movable=0;rotatable=0;deletable=0;editable=0;locked=1;connectable=0;" parent="1" vertex="1">
          <mxGeometry x="380.00403630124697" y="662.5000471311116" width="100" height="30" as="geometry" />
        </mxCell>
        <mxCell id="gIwlXGtRDfr9pe6k1q0f-96" style="rounded=0;orthogonalLoop=1;jettySize=auto;html=1;entryX=0;entryY=0.5;entryDx=0;entryDy=0;movable=0;resizable=0;rotatable=0;deletable=0;editable=0;locked=1;connectable=0;" parent="1" source="gIwlXGtRDfr9pe6k1q0f-97" target="gIwlXGtRDfr9pe6k1q0f-91" edge="1">
          <mxGeometry relative="1" as="geometry" />
        </mxCell>
        <mxCell id="gIwlXGtRDfr9pe6k1q0f-97" value="User" style="shape=umlActor;verticalLabelPosition=bottom;verticalAlign=top;html=1;outlineConnect=0;movable=0;resizable=0;rotatable=0;deletable=0;editable=0;locked=1;connectable=0;" parent="1" vertex="1">
          <mxGeometry x="150" y="596.25" width="30" height="60" as="geometry" />
        </mxCell>
        <mxCell id="gIwlXGtRDfr9pe6k1q0f-98" value="" style="rounded=0;whiteSpace=wrap;html=1;movable=0;resizable=0;rotatable=0;deletable=0;editable=0;locked=1;connectable=0;" parent="1" vertex="1">
          <mxGeometry x="1010" y="300" width="560" height="240" as="geometry" />
        </mxCell>
        <mxCell id="gIwlXGtRDfr9pe6k1q0f-99" value="&lt;font style=&quot;font-size: 14px;&quot;&gt;UC-6 Search field use case diagram&lt;/font&gt;" style="text;html=1;align=center;verticalAlign=middle;resizable=0;points=[];autosize=1;strokeColor=none;fillColor=none;fontStyle=1;movable=0;rotatable=0;deletable=0;editable=0;locked=1;connectable=0;" parent="1" vertex="1">
          <mxGeometry x="1165" y="310" width="250" height="30" as="geometry" />
        </mxCell>
        <mxCell id="gIwlXGtRDfr9pe6k1q0f-100" style="rounded=0;orthogonalLoop=1;jettySize=auto;html=1;exitX=1;exitY=0;exitDx=0;exitDy=0;entryX=0;entryY=0.5;entryDx=0;entryDy=0;dashed=1;dashPattern=8 8;movable=0;resizable=0;rotatable=0;deletable=0;editable=0;locked=1;connectable=0;" parent="1" source="gIwlXGtRDfr9pe6k1q0f-101" target="gIwlXGtRDfr9pe6k1q0f-102" edge="1">
          <mxGeometry relative="1" as="geometry" />
        </mxCell>
        <mxCell id="gIwlXGtRDfr9pe6k1q0f-108" style="rounded=0;orthogonalLoop=1;jettySize=auto;html=1;exitX=1;exitY=1;exitDx=0;exitDy=0;dashed=1;dashPattern=8 8;entryX=0;entryY=0.5;entryDx=0;entryDy=0;movable=0;resizable=0;rotatable=0;deletable=0;editable=0;locked=1;connectable=0;" parent="1" source="gIwlXGtRDfr9pe6k1q0f-101" target="gIwlXGtRDfr9pe6k1q0f-106" edge="1">
          <mxGeometry relative="1" as="geometry">
            <mxPoint x="1053" y="499" as="targetPoint" />
          </mxGeometry>
        </mxCell>
        <mxCell id="gIwlXGtRDfr9pe6k1q0f-101" value="Search field" style="ellipse;whiteSpace=wrap;html=1;movable=0;resizable=0;rotatable=0;deletable=0;editable=0;locked=1;connectable=0;" parent="1" vertex="1">
          <mxGeometry x="1045" y="405" width="100" height="60" as="geometry" />
        </mxCell>
        <mxCell id="gIwlXGtRDfr9pe6k1q0f-113" style="rounded=0;orthogonalLoop=1;jettySize=auto;html=1;exitX=1;exitY=0.5;exitDx=0;exitDy=0;dashed=1;dashPattern=8 8;entryX=0;entryY=0;entryDx=0;entryDy=0;movable=0;resizable=0;rotatable=0;deletable=0;editable=0;locked=1;connectable=0;" parent="1" source="gIwlXGtRDfr9pe6k1q0f-102" target="gIwlXGtRDfr9pe6k1q0f-109" edge="1">
          <mxGeometry relative="1" as="geometry">
            <mxPoint x="1430" y="440" as="targetPoint" />
          </mxGeometry>
        </mxCell>
        <mxCell id="gIwlXGtRDfr9pe6k1q0f-102" value="Enter field&#39;s information" style="ellipse;whiteSpace=wrap;html=1;movable=0;resizable=0;rotatable=0;deletable=0;editable=0;locked=1;connectable=0;" parent="1" vertex="1">
          <mxGeometry x="1200" y="350" width="160" height="60" as="geometry" />
        </mxCell>
        <mxCell id="gIwlXGtRDfr9pe6k1q0f-103" value="&amp;lt;&amp;lt; include &amp;gt;&amp;gt;" style="text;html=1;align=center;verticalAlign=middle;resizable=0;points=[];autosize=1;strokeColor=none;fillColor=none;rotation=0;movable=0;rotatable=0;deletable=0;editable=0;locked=1;connectable=0;" parent="1" vertex="1">
          <mxGeometry x="1090.004036301247" y="365.0000471311116" width="100" height="30" as="geometry" />
        </mxCell>
        <mxCell id="gIwlXGtRDfr9pe6k1q0f-104" style="edgeStyle=orthogonalEdgeStyle;rounded=0;orthogonalLoop=1;jettySize=auto;html=1;entryX=0;entryY=0.5;entryDx=0;entryDy=0;movable=0;resizable=0;rotatable=0;deletable=0;editable=0;locked=1;connectable=0;" parent="1" source="gIwlXGtRDfr9pe6k1q0f-105" target="gIwlXGtRDfr9pe6k1q0f-101" edge="1">
          <mxGeometry relative="1" as="geometry" />
        </mxCell>
        <mxCell id="gIwlXGtRDfr9pe6k1q0f-105" value="User" style="shape=umlActor;verticalLabelPosition=bottom;verticalAlign=top;html=1;outlineConnect=0;movable=0;resizable=0;rotatable=0;deletable=0;editable=0;locked=1;connectable=0;" parent="1" vertex="1">
          <mxGeometry x="930" y="405" width="30" height="60" as="geometry" />
        </mxCell>
        <mxCell id="gIwlXGtRDfr9pe6k1q0f-112" style="rounded=0;orthogonalLoop=1;jettySize=auto;html=1;exitX=1;exitY=0.5;exitDx=0;exitDy=0;entryX=0;entryY=1;entryDx=0;entryDy=0;dashed=1;dashPattern=8 8;movable=0;resizable=0;rotatable=0;deletable=0;editable=0;locked=1;connectable=0;" parent="1" source="gIwlXGtRDfr9pe6k1q0f-106" target="gIwlXGtRDfr9pe6k1q0f-109" edge="1">
          <mxGeometry relative="1" as="geometry" />
        </mxCell>
        <mxCell id="gIwlXGtRDfr9pe6k1q0f-106" value="Enter date" style="ellipse;whiteSpace=wrap;html=1;movable=0;resizable=0;rotatable=0;deletable=0;editable=0;locked=1;connectable=0;" parent="1" vertex="1">
          <mxGeometry x="1220" y="455" width="120" height="60" as="geometry" />
        </mxCell>
        <mxCell id="gIwlXGtRDfr9pe6k1q0f-109" value="View scheudle" style="ellipse;whiteSpace=wrap;html=1;movable=0;resizable=0;rotatable=0;deletable=0;editable=0;locked=1;connectable=0;" parent="1" vertex="1">
          <mxGeometry x="1430" y="405" width="110" height="60" as="geometry" />
        </mxCell>
        <mxCell id="gIwlXGtRDfr9pe6k1q0f-111" value="&amp;lt;&amp;lt; include &amp;gt;&amp;gt;" style="text;html=1;align=center;verticalAlign=middle;resizable=0;points=[];autosize=1;strokeColor=none;fillColor=none;rotation=0;movable=0;rotatable=0;deletable=0;editable=0;locked=1;connectable=0;" parent="1" vertex="1">
          <mxGeometry x="1090" y="470" width="100" height="30" as="geometry" />
        </mxCell>
        <mxCell id="gIwlXGtRDfr9pe6k1q0f-114" value="&amp;lt;&amp;lt; extend &amp;gt;&amp;gt;" style="text;html=1;align=center;verticalAlign=middle;resizable=0;points=[];autosize=1;strokeColor=none;fillColor=none;rotation=0;movable=0;rotatable=0;deletable=0;editable=0;locked=1;connectable=0;" parent="1" vertex="1">
          <mxGeometry x="1370" y="365" width="90" height="30" as="geometry" />
        </mxCell>
        <mxCell id="gIwlXGtRDfr9pe6k1q0f-115" value="&amp;lt;&amp;lt; extend &amp;gt;&amp;gt;" style="text;html=1;align=center;verticalAlign=middle;resizable=0;points=[];autosize=1;strokeColor=none;fillColor=none;rotation=0;movable=0;rotatable=0;deletable=0;editable=0;locked=1;connectable=0;" parent="1" vertex="1">
          <mxGeometry x="1350" y="480" width="90" height="30" as="geometry" />
        </mxCell>
        <mxCell id="gIwlXGtRDfr9pe6k1q0f-159" value="" style="group;movable=0;resizable=0;rotatable=0;deletable=0;editable=0;locked=1;connectable=0;" parent="1" vertex="1" connectable="0">
          <mxGeometry x="-350" y="508" width="120" height="85" as="geometry" />
        </mxCell>
        <mxCell id="gIwlXGtRDfr9pe6k1q0f-160" value="Booking" style="ellipse;whiteSpace=wrap;html=1;movable=0;resizable=0;rotatable=0;deletable=0;editable=0;locked=1;connectable=0;" parent="gIwlXGtRDfr9pe6k1q0f-159" vertex="1">
          <mxGeometry y="31.875" width="120" height="53.125" as="geometry" />
        </mxCell>
        <mxCell id="gIwlXGtRDfr9pe6k1q0f-161" value="UC-8" style="text;html=1;align=center;verticalAlign=middle;resizable=0;points=[];autosize=1;strokeColor=none;fillColor=none;movable=0;rotatable=0;deletable=0;editable=0;locked=1;connectable=0;" parent="gIwlXGtRDfr9pe6k1q0f-159" vertex="1">
          <mxGeometry x="35" y="2" width="50" height="30" as="geometry" />
        </mxCell>
        <mxCell id="gIwlXGtRDfr9pe6k1q0f-183" value="&lt;font style=&quot;font-size: 14px;&quot;&gt;General use case diagram&lt;/font&gt;" style="text;html=1;align=center;verticalAlign=middle;resizable=0;points=[];autosize=1;strokeColor=none;fillColor=none;fontStyle=1;movable=0;rotatable=0;deletable=0;editable=0;locked=1;connectable=0;" parent="1" vertex="1">
          <mxGeometry x="-520" y="157.5" width="190" height="30" as="geometry" />
        </mxCell>
        <mxCell id="5zTkcHhDiUD0QSWI-N54-100" style="edgeStyle=orthogonalEdgeStyle;rounded=0;orthogonalLoop=1;jettySize=auto;html=1;entryX=1;entryY=0.5;entryDx=0;entryDy=0;strokeWidth=2;strokeColor=#FF0000;movable=0;resizable=0;rotatable=0;deletable=0;editable=0;locked=1;connectable=0;" edge="1" parent="1" source="gIwlXGtRDfr9pe6k1q0f-192" target="gIwlXGtRDfr9pe6k1q0f-197">
          <mxGeometry relative="1" as="geometry">
            <Array as="points">
              <mxPoint x="-65" y="811" />
            </Array>
          </mxGeometry>
        </mxCell>
        <mxCell id="5zTkcHhDiUD0QSWI-N54-101" style="edgeStyle=orthogonalEdgeStyle;rounded=0;orthogonalLoop=1;jettySize=auto;html=1;entryX=1;entryY=0.5;entryDx=0;entryDy=0;strokeWidth=2;strokeColor=#FF0000;movable=0;resizable=0;rotatable=0;deletable=0;editable=0;locked=1;connectable=0;" edge="1" parent="1" source="gIwlXGtRDfr9pe6k1q0f-192" target="gIwlXGtRDfr9pe6k1q0f-208">
          <mxGeometry relative="1" as="geometry">
            <Array as="points">
              <mxPoint x="-65" y="435" />
            </Array>
          </mxGeometry>
        </mxCell>
        <mxCell id="5zTkcHhDiUD0QSWI-N54-108" style="edgeStyle=orthogonalEdgeStyle;rounded=0;orthogonalLoop=1;jettySize=auto;html=1;entryX=1;entryY=0.5;entryDx=0;entryDy=0;strokeWidth=2;strokeColor=#FF0000;movable=0;resizable=0;rotatable=0;deletable=0;editable=0;locked=1;connectable=0;" edge="1" parent="1" source="gIwlXGtRDfr9pe6k1q0f-192" target="gIwlXGtRDfr9pe6k1q0f-322">
          <mxGeometry relative="1" as="geometry">
            <Array as="points">
              <mxPoint x="-540" y="920" />
              <mxPoint x="-540" y="395" />
            </Array>
          </mxGeometry>
        </mxCell>
        <mxCell id="5zTkcHhDiUD0QSWI-N54-109" style="edgeStyle=orthogonalEdgeStyle;rounded=0;orthogonalLoop=1;jettySize=auto;html=1;entryX=1;entryY=0.5;entryDx=0;entryDy=0;strokeColor=#FF0000;movable=0;resizable=0;rotatable=0;deletable=0;editable=0;locked=1;connectable=0;" edge="1" parent="1" source="gIwlXGtRDfr9pe6k1q0f-192" target="gIwlXGtRDfr9pe6k1q0f-219">
          <mxGeometry relative="1" as="geometry">
            <Array as="points">
              <mxPoint x="-540" y="920" />
              <mxPoint x="-540" y="528" />
            </Array>
          </mxGeometry>
        </mxCell>
        <mxCell id="gIwlXGtRDfr9pe6k1q0f-192" value="&lt;font style=&quot;font-size: 15px;&quot;&gt;&lt;b&gt;Admin&lt;/b&gt;&lt;/font&gt;" style="shape=umlActor;verticalLabelPosition=bottom;verticalAlign=top;html=1;outlineConnect=0;movable=0;resizable=0;rotatable=0;deletable=0;editable=0;locked=1;connectable=0;" parent="1" vertex="1">
          <mxGeometry x="-80" y="915" width="30" height="60" as="geometry" />
        </mxCell>
        <mxCell id="gIwlXGtRDfr9pe6k1q0f-196" value="" style="group;movable=0;resizable=0;rotatable=0;deletable=0;editable=0;locked=1;connectable=0;" parent="1" vertex="1" connectable="0">
          <mxGeometry x="-245" y="756.25" width="140" height="80" as="geometry" />
        </mxCell>
        <mxCell id="gIwlXGtRDfr9pe6k1q0f-197" value="Manage fields" style="ellipse;whiteSpace=wrap;html=1;movable=0;resizable=0;rotatable=0;deletable=0;editable=0;locked=1;connectable=0;" parent="gIwlXGtRDfr9pe6k1q0f-196" vertex="1">
          <mxGeometry y="30" width="140" height="50" as="geometry" />
        </mxCell>
        <mxCell id="gIwlXGtRDfr9pe6k1q0f-198" value="UC-12" style="text;html=1;align=center;verticalAlign=middle;resizable=0;points=[];autosize=1;strokeColor=none;fillColor=none;movable=0;rotatable=0;deletable=0;editable=0;locked=1;connectable=0;" parent="gIwlXGtRDfr9pe6k1q0f-196" vertex="1">
          <mxGeometry x="40" width="60" height="30" as="geometry" />
        </mxCell>
        <mxCell id="gIwlXGtRDfr9pe6k1q0f-199" value="" style="group;movable=0;resizable=0;rotatable=0;deletable=0;editable=0;locked=1;connectable=0;" parent="1" vertex="1" connectable="0">
          <mxGeometry x="-695" y="216.87" width="120" height="80" as="geometry" />
        </mxCell>
        <mxCell id="gIwlXGtRDfr9pe6k1q0f-200" value="Register account" style="ellipse;whiteSpace=wrap;html=1;movable=0;resizable=0;rotatable=0;deletable=0;editable=0;locked=1;connectable=0;" parent="gIwlXGtRDfr9pe6k1q0f-199" vertex="1">
          <mxGeometry y="30" width="120" height="50" as="geometry" />
        </mxCell>
        <mxCell id="gIwlXGtRDfr9pe6k1q0f-201" value="UC-1" style="text;html=1;align=center;verticalAlign=middle;resizable=0;points=[];autosize=1;strokeColor=none;fillColor=none;movable=0;rotatable=0;deletable=0;editable=0;locked=1;connectable=0;" parent="gIwlXGtRDfr9pe6k1q0f-199" vertex="1">
          <mxGeometry x="35" width="50" height="30" as="geometry" />
        </mxCell>
        <mxCell id="gIwlXGtRDfr9pe6k1q0f-203" value="" style="group;movable=0;resizable=0;rotatable=0;deletable=0;editable=0;locked=1;connectable=0;" parent="1" vertex="1" connectable="0">
          <mxGeometry x="-430" y="216.87" width="180" height="80" as="geometry" />
        </mxCell>
        <mxCell id="gIwlXGtRDfr9pe6k1q0f-204" value="Sending Mail" style="ellipse;whiteSpace=wrap;html=1;movable=0;resizable=0;rotatable=0;deletable=0;editable=0;locked=1;connectable=0;" parent="gIwlXGtRDfr9pe6k1q0f-203" vertex="1">
          <mxGeometry x="5" y="30" width="180" height="50" as="geometry" />
        </mxCell>
        <mxCell id="gIwlXGtRDfr9pe6k1q0f-205" value="UC-10" style="text;html=1;align=center;verticalAlign=middle;resizable=0;points=[];autosize=1;strokeColor=none;fillColor=none;movable=0;rotatable=0;deletable=0;editable=0;locked=1;connectable=0;" parent="gIwlXGtRDfr9pe6k1q0f-203" vertex="1">
          <mxGeometry x="60" width="60" height="30" as="geometry" />
        </mxCell>
        <mxCell id="gIwlXGtRDfr9pe6k1q0f-206" style="rounded=0;orthogonalLoop=1;jettySize=auto;html=1;dashed=1;dashPattern=8 8;movable=0;resizable=0;rotatable=0;deletable=0;editable=0;locked=1;connectable=0;" parent="gIwlXGtRDfr9pe6k1q0f-203" source="gIwlXGtRDfr9pe6k1q0f-205" target="gIwlXGtRDfr9pe6k1q0f-204" edge="1">
          <mxGeometry relative="1" as="geometry" />
        </mxCell>
        <mxCell id="gIwlXGtRDfr9pe6k1q0f-207" value="" style="group;movable=0;resizable=0;rotatable=0;deletable=0;editable=0;locked=1;connectable=0;" parent="1" vertex="1" connectable="0">
          <mxGeometry x="-250" y="380" width="150" height="80" as="geometry" />
        </mxCell>
        <mxCell id="gIwlXGtRDfr9pe6k1q0f-208" value="Confirm/Reject Booking" style="ellipse;whiteSpace=wrap;html=1;movable=0;resizable=0;rotatable=0;deletable=0;editable=0;locked=1;connectable=0;" parent="gIwlXGtRDfr9pe6k1q0f-207" vertex="1">
          <mxGeometry y="30" width="150" height="50" as="geometry" />
        </mxCell>
        <mxCell id="gIwlXGtRDfr9pe6k1q0f-209" value="UC-11" style="text;html=1;align=center;verticalAlign=middle;resizable=0;points=[];autosize=1;strokeColor=none;fillColor=none;movable=0;rotatable=0;deletable=0;editable=0;locked=1;connectable=0;" parent="gIwlXGtRDfr9pe6k1q0f-207" vertex="1">
          <mxGeometry x="45" width="60" height="30" as="geometry" />
        </mxCell>
        <mxCell id="gIwlXGtRDfr9pe6k1q0f-251" value="" style="rounded=0;whiteSpace=wrap;html=1;movable=0;resizable=0;rotatable=0;deletable=0;editable=0;locked=1;connectable=0;" parent="1" vertex="1">
          <mxGeometry x="960" y="645" width="630" height="330" as="geometry" />
        </mxCell>
        <mxCell id="gIwlXGtRDfr9pe6k1q0f-252" value="&lt;font style=&quot;font-size: 14px;&quot;&gt;UC-9 Cancel/Reschedule use case diagram&lt;/font&gt;" style="text;html=1;align=center;verticalAlign=middle;resizable=0;points=[];autosize=1;strokeColor=none;fillColor=none;fontStyle=1;movable=0;rotatable=0;deletable=0;editable=0;locked=1;connectable=0;" parent="1" vertex="1">
          <mxGeometry x="1090" y="655" width="300" height="30" as="geometry" />
        </mxCell>
        <mxCell id="gIwlXGtRDfr9pe6k1q0f-253" style="rounded=0;orthogonalLoop=1;jettySize=auto;html=1;exitX=1;exitY=0;exitDx=0;exitDy=0;entryX=0;entryY=0.5;entryDx=0;entryDy=0;dashed=1;dashPattern=8 8;movable=0;resizable=0;rotatable=0;deletable=0;editable=0;locked=1;connectable=0;" parent="1" source="gIwlXGtRDfr9pe6k1q0f-255" target="gIwlXGtRDfr9pe6k1q0f-257" edge="1">
          <mxGeometry relative="1" as="geometry" />
        </mxCell>
        <mxCell id="gIwlXGtRDfr9pe6k1q0f-254" style="rounded=0;orthogonalLoop=1;jettySize=auto;html=1;exitX=1;exitY=0.5;exitDx=0;exitDy=0;dashed=1;dashPattern=8 8;entryX=0;entryY=0.5;entryDx=0;entryDy=0;movable=0;resizable=0;rotatable=0;deletable=0;editable=0;locked=1;connectable=0;" parent="1" source="gIwlXGtRDfr9pe6k1q0f-255" target="gIwlXGtRDfr9pe6k1q0f-262" edge="1">
          <mxGeometry relative="1" as="geometry">
            <mxPoint x="1003" y="889" as="targetPoint" />
          </mxGeometry>
        </mxCell>
        <mxCell id="gIwlXGtRDfr9pe6k1q0f-269" style="rounded=0;orthogonalLoop=1;jettySize=auto;html=1;exitX=1;exitY=1;exitDx=0;exitDy=0;entryX=0;entryY=0.5;entryDx=0;entryDy=0;dashed=1;dashPattern=8 8;movable=0;resizable=0;rotatable=0;deletable=0;editable=0;locked=1;connectable=0;" parent="1" source="gIwlXGtRDfr9pe6k1q0f-255" target="gIwlXGtRDfr9pe6k1q0f-267" edge="1">
          <mxGeometry relative="1" as="geometry" />
        </mxCell>
        <mxCell id="gIwlXGtRDfr9pe6k1q0f-255" value="&lt;span style=&quot;font-size: 14px; font-weight: 700; text-wrap-mode: nowrap;&quot;&gt;Cancel/Reschedule&lt;/span&gt;" style="ellipse;whiteSpace=wrap;html=1;movable=0;resizable=0;rotatable=0;deletable=0;editable=0;locked=1;connectable=0;" parent="1" vertex="1">
          <mxGeometry x="995" y="795" width="155" height="60" as="geometry" />
        </mxCell>
        <mxCell id="gIwlXGtRDfr9pe6k1q0f-256" style="rounded=0;orthogonalLoop=1;jettySize=auto;html=1;exitX=1;exitY=0.5;exitDx=0;exitDy=0;dashed=1;dashPattern=8 8;entryX=0;entryY=0;entryDx=0;entryDy=0;movable=0;resizable=0;rotatable=0;deletable=0;editable=0;locked=1;connectable=0;" parent="1" source="gIwlXGtRDfr9pe6k1q0f-257" target="gIwlXGtRDfr9pe6k1q0f-263" edge="1">
          <mxGeometry relative="1" as="geometry">
            <mxPoint x="1380" y="830" as="targetPoint" />
          </mxGeometry>
        </mxCell>
        <mxCell id="gIwlXGtRDfr9pe6k1q0f-257" value="Enter field&#39;s information" style="ellipse;whiteSpace=wrap;html=1;movable=0;resizable=0;rotatable=0;deletable=0;editable=0;locked=1;connectable=0;" parent="1" vertex="1">
          <mxGeometry x="1220" y="695" width="160" height="60" as="geometry" />
        </mxCell>
        <mxCell id="gIwlXGtRDfr9pe6k1q0f-258" value="&amp;lt;&amp;lt; include &amp;gt;&amp;gt;" style="text;html=1;align=center;verticalAlign=middle;resizable=0;points=[];autosize=1;strokeColor=none;fillColor=none;rotation=0;movable=0;rotatable=0;deletable=0;editable=0;locked=1;connectable=0;" parent="1" vertex="1">
          <mxGeometry x="1080.004036301247" y="745.0000471311116" width="100" height="30" as="geometry" />
        </mxCell>
        <mxCell id="gIwlXGtRDfr9pe6k1q0f-259" style="edgeStyle=orthogonalEdgeStyle;rounded=0;orthogonalLoop=1;jettySize=auto;html=1;entryX=0;entryY=0.5;entryDx=0;entryDy=0;movable=0;resizable=0;rotatable=0;deletable=0;editable=0;locked=1;connectable=0;" parent="1" source="gIwlXGtRDfr9pe6k1q0f-260" target="gIwlXGtRDfr9pe6k1q0f-255" edge="1">
          <mxGeometry relative="1" as="geometry" />
        </mxCell>
        <mxCell id="gIwlXGtRDfr9pe6k1q0f-260" value="User" style="shape=umlActor;verticalLabelPosition=bottom;verticalAlign=top;html=1;outlineConnect=0;movable=0;resizable=0;rotatable=0;deletable=0;editable=0;locked=1;connectable=0;" parent="1" vertex="1">
          <mxGeometry x="880" y="795" width="30" height="60" as="geometry" />
        </mxCell>
        <mxCell id="gIwlXGtRDfr9pe6k1q0f-261" style="rounded=0;orthogonalLoop=1;jettySize=auto;html=1;exitX=1;exitY=0.5;exitDx=0;exitDy=0;dashed=1;dashPattern=8 8;movable=0;resizable=0;rotatable=0;deletable=0;editable=0;locked=1;connectable=0;" parent="1" source="gIwlXGtRDfr9pe6k1q0f-262" target="gIwlXGtRDfr9pe6k1q0f-263" edge="1">
          <mxGeometry relative="1" as="geometry" />
        </mxCell>
        <mxCell id="gIwlXGtRDfr9pe6k1q0f-262" value="Enter reasion" style="ellipse;whiteSpace=wrap;html=1;movable=0;resizable=0;rotatable=0;deletable=0;editable=0;locked=1;connectable=0;" parent="1" vertex="1">
          <mxGeometry x="1240" y="795" width="120" height="60" as="geometry" />
        </mxCell>
        <mxCell id="gIwlXGtRDfr9pe6k1q0f-263" value="Confirm" style="ellipse;whiteSpace=wrap;html=1;movable=0;resizable=0;rotatable=0;deletable=0;editable=0;locked=1;connectable=0;" parent="1" vertex="1">
          <mxGeometry x="1465" y="795" width="110" height="60" as="geometry" />
        </mxCell>
        <mxCell id="gIwlXGtRDfr9pe6k1q0f-264" value="&amp;lt;&amp;lt; include &amp;gt;&amp;gt;" style="text;html=1;align=center;verticalAlign=middle;resizable=0;points=[];autosize=1;strokeColor=none;fillColor=none;rotation=0;movable=0;rotatable=0;deletable=0;editable=0;locked=1;connectable=0;" parent="1" vertex="1">
          <mxGeometry x="1140" y="798" width="100" height="30" as="geometry" />
        </mxCell>
        <mxCell id="gIwlXGtRDfr9pe6k1q0f-265" value="&amp;lt;&amp;lt; extend &amp;gt;&amp;gt;" style="text;html=1;align=center;verticalAlign=middle;resizable=0;points=[];autosize=1;strokeColor=none;fillColor=none;rotation=0;movable=0;rotatable=0;deletable=0;editable=0;locked=1;connectable=0;" parent="1" vertex="1">
          <mxGeometry x="1440" y="740" width="90" height="30" as="geometry" />
        </mxCell>
        <mxCell id="gIwlXGtRDfr9pe6k1q0f-271" style="rounded=0;orthogonalLoop=1;jettySize=auto;html=1;exitX=1;exitY=0.5;exitDx=0;exitDy=0;entryX=0;entryY=1;entryDx=0;entryDy=0;dashed=1;dashPattern=8 8;movable=0;resizable=0;rotatable=0;deletable=0;editable=0;locked=1;connectable=0;" parent="1" source="gIwlXGtRDfr9pe6k1q0f-267" target="gIwlXGtRDfr9pe6k1q0f-263" edge="1">
          <mxGeometry relative="1" as="geometry" />
        </mxCell>
        <mxCell id="gIwlXGtRDfr9pe6k1q0f-267" value="Reschedule to" style="ellipse;whiteSpace=wrap;html=1;movable=0;resizable=0;rotatable=0;deletable=0;editable=0;locked=1;connectable=0;" parent="1" vertex="1">
          <mxGeometry x="1240" y="900" width="120" height="60" as="geometry" />
        </mxCell>
        <mxCell id="gIwlXGtRDfr9pe6k1q0f-272" value="&amp;lt;&amp;lt; extend &amp;gt;&amp;gt;" style="text;html=1;align=center;verticalAlign=middle;resizable=0;points=[];autosize=1;strokeColor=none;fillColor=none;rotation=0;movable=0;rotatable=0;deletable=0;editable=0;locked=1;connectable=0;" parent="1" vertex="1">
          <mxGeometry x="1365" y="795" width="90" height="30" as="geometry" />
        </mxCell>
        <mxCell id="gIwlXGtRDfr9pe6k1q0f-273" value="&amp;lt;&amp;lt; include &amp;gt;&amp;gt;" style="text;html=1;align=center;verticalAlign=middle;resizable=0;points=[];autosize=1;strokeColor=none;fillColor=none;rotation=0;movable=0;rotatable=0;deletable=0;editable=0;locked=1;connectable=0;" parent="1" vertex="1">
          <mxGeometry x="1080" y="875" width="100" height="30" as="geometry" />
        </mxCell>
        <mxCell id="gIwlXGtRDfr9pe6k1q0f-274" value="&amp;lt;&amp;lt; extend &amp;gt;&amp;gt;" style="text;html=1;align=center;verticalAlign=middle;resizable=0;points=[];autosize=1;strokeColor=none;fillColor=none;rotation=0;movable=0;rotatable=0;deletable=0;editable=0;locked=1;connectable=0;" parent="1" vertex="1">
          <mxGeometry x="1455" y="870" width="90" height="30" as="geometry" />
        </mxCell>
        <mxCell id="gIwlXGtRDfr9pe6k1q0f-296" value="" style="rounded=0;whiteSpace=wrap;html=1;movable=0;resizable=0;rotatable=0;deletable=0;editable=0;locked=1;connectable=0;" parent="1" vertex="1">
          <mxGeometry x="1060" y="37.5" width="430" height="145" as="geometry" />
        </mxCell>
        <mxCell id="gIwlXGtRDfr9pe6k1q0f-297" value="&lt;font style=&quot;font-size: 14px;&quot;&gt;UC-5 Send support request use case diagram&lt;/font&gt;" style="text;html=1;align=center;verticalAlign=middle;resizable=0;points=[];autosize=1;strokeColor=none;fillColor=none;fontStyle=1;movable=0;rotatable=0;deletable=0;editable=0;locked=1;connectable=0;" parent="1" vertex="1">
          <mxGeometry x="1120" y="47.5" width="310" height="30" as="geometry" />
        </mxCell>
        <mxCell id="gIwlXGtRDfr9pe6k1q0f-298" style="rounded=0;orthogonalLoop=1;jettySize=auto;html=1;exitX=1;exitY=0.5;exitDx=0;exitDy=0;entryX=0;entryY=0.5;entryDx=0;entryDy=0;dashed=1;dashPattern=8 8;movable=0;resizable=0;rotatable=0;deletable=0;editable=0;locked=1;connectable=0;" parent="1" source="gIwlXGtRDfr9pe6k1q0f-300" target="gIwlXGtRDfr9pe6k1q0f-301" edge="1">
          <mxGeometry relative="1" as="geometry" />
        </mxCell>
        <mxCell id="gIwlXGtRDfr9pe6k1q0f-300" value="Send support request" style="ellipse;whiteSpace=wrap;html=1;movable=0;resizable=0;rotatable=0;deletable=0;editable=0;locked=1;connectable=0;" parent="1" vertex="1">
          <mxGeometry x="1100" y="97.5" width="140" height="60" as="geometry" />
        </mxCell>
        <mxCell id="gIwlXGtRDfr9pe6k1q0f-301" value="Enter request content" style="ellipse;whiteSpace=wrap;html=1;movable=0;resizable=0;rotatable=0;deletable=0;editable=0;locked=1;connectable=0;" parent="1" vertex="1">
          <mxGeometry x="1320" y="97.5" width="160" height="60" as="geometry" />
        </mxCell>
        <mxCell id="gIwlXGtRDfr9pe6k1q0f-303" value="&amp;lt;&amp;lt; include &amp;gt;&amp;gt;" style="text;html=1;align=center;verticalAlign=middle;resizable=0;points=[];autosize=1;strokeColor=none;fillColor=none;rotation=0;movable=0;rotatable=0;deletable=0;editable=0;locked=1;connectable=0;" parent="1" vertex="1">
          <mxGeometry x="1225.004036301247" y="97.50004713111161" width="100" height="30" as="geometry" />
        </mxCell>
        <mxCell id="gIwlXGtRDfr9pe6k1q0f-305" style="edgeStyle=orthogonalEdgeStyle;rounded=0;orthogonalLoop=1;jettySize=auto;html=1;entryX=0;entryY=0.5;entryDx=0;entryDy=0;movable=0;resizable=0;rotatable=0;deletable=0;editable=0;locked=1;connectable=0;" parent="1" source="gIwlXGtRDfr9pe6k1q0f-306" target="gIwlXGtRDfr9pe6k1q0f-300" edge="1">
          <mxGeometry relative="1" as="geometry" />
        </mxCell>
        <mxCell id="gIwlXGtRDfr9pe6k1q0f-306" value="User" style="shape=umlActor;verticalLabelPosition=bottom;verticalAlign=top;html=1;outlineConnect=0;movable=0;resizable=0;rotatable=0;deletable=0;editable=0;locked=1;connectable=0;" parent="1" vertex="1">
          <mxGeometry x="980" y="97.5" width="30" height="60" as="geometry" />
        </mxCell>
        <mxCell id="gIwlXGtRDfr9pe6k1q0f-307" value="" style="rounded=0;whiteSpace=wrap;html=1;movable=0;resizable=0;rotatable=0;deletable=0;editable=0;locked=1;connectable=0;" parent="1" vertex="1">
          <mxGeometry x="1870" y="647.5" width="510" height="322.5" as="geometry" />
        </mxCell>
        <mxCell id="gIwlXGtRDfr9pe6k1q0f-308" value="&lt;font style=&quot;font-size: 14px;&quot;&gt;UC-12 Manage field use case diagram&lt;/font&gt;" style="text;html=1;align=center;verticalAlign=middle;resizable=0;points=[];autosize=1;strokeColor=none;fillColor=none;fontStyle=1;movable=0;rotatable=0;deletable=0;editable=0;locked=1;connectable=0;" parent="1" vertex="1">
          <mxGeometry x="2000" y="660" width="260" height="30" as="geometry" />
        </mxCell>
        <mxCell id="gIwlXGtRDfr9pe6k1q0f-309" style="rounded=0;orthogonalLoop=1;jettySize=auto;html=1;exitX=1;exitY=0.5;exitDx=0;exitDy=0;entryX=0;entryY=0.5;entryDx=0;entryDy=0;dashed=1;dashPattern=8 8;movable=0;resizable=0;rotatable=0;deletable=0;editable=0;locked=1;connectable=0;" parent="1" source="gIwlXGtRDfr9pe6k1q0f-310" target="gIwlXGtRDfr9pe6k1q0f-311" edge="1">
          <mxGeometry relative="1" as="geometry" />
        </mxCell>
        <mxCell id="gIwlXGtRDfr9pe6k1q0f-328" style="edgeStyle=orthogonalEdgeStyle;rounded=0;orthogonalLoop=1;jettySize=auto;html=1;exitX=0.5;exitY=1;exitDx=0;exitDy=0;entryX=0.5;entryY=0;entryDx=0;entryDy=0;dashed=1;dashPattern=8 8;movable=0;resizable=0;rotatable=0;deletable=0;editable=0;locked=1;connectable=0;" parent="1" source="gIwlXGtRDfr9pe6k1q0f-310" target="gIwlXGtRDfr9pe6k1q0f-327" edge="1">
          <mxGeometry relative="1" as="geometry" />
        </mxCell>
        <mxCell id="gIwlXGtRDfr9pe6k1q0f-329" style="rounded=0;orthogonalLoop=1;jettySize=auto;html=1;exitX=1;exitY=1;exitDx=0;exitDy=0;entryX=0;entryY=0.5;entryDx=0;entryDy=0;dashed=1;dashPattern=8 8;movable=0;resizable=0;rotatable=0;deletable=0;editable=0;locked=1;connectable=0;" parent="1" source="gIwlXGtRDfr9pe6k1q0f-310" target="gIwlXGtRDfr9pe6k1q0f-325" edge="1">
          <mxGeometry relative="1" as="geometry" />
        </mxCell>
        <mxCell id="gIwlXGtRDfr9pe6k1q0f-330" style="rounded=0;orthogonalLoop=1;jettySize=auto;html=1;entryX=0;entryY=0;entryDx=0;entryDy=0;dashed=1;dashPattern=12 12;movable=0;resizable=0;rotatable=0;deletable=0;editable=0;locked=1;connectable=0;" parent="1" source="gIwlXGtRDfr9pe6k1q0f-310" target="gIwlXGtRDfr9pe6k1q0f-326" edge="1">
          <mxGeometry relative="1" as="geometry" />
        </mxCell>
        <mxCell id="gIwlXGtRDfr9pe6k1q0f-310" value="Manage field" style="ellipse;whiteSpace=wrap;html=1;movable=0;resizable=0;rotatable=0;deletable=0;editable=0;locked=1;connectable=0;" parent="1" vertex="1">
          <mxGeometry x="1910" y="707.5" width="140" height="60" as="geometry" />
        </mxCell>
        <mxCell id="gIwlXGtRDfr9pe6k1q0f-311" value="Add new field" style="ellipse;whiteSpace=wrap;html=1;movable=0;resizable=0;rotatable=0;deletable=0;editable=0;locked=1;connectable=0;" parent="1" vertex="1">
          <mxGeometry x="2200" y="707.5" width="160" height="60" as="geometry" />
        </mxCell>
        <mxCell id="gIwlXGtRDfr9pe6k1q0f-312" value="&amp;lt;&amp;lt; include &amp;gt;&amp;gt;" style="text;html=1;align=center;verticalAlign=middle;resizable=0;points=[];autosize=1;strokeColor=none;fillColor=none;rotation=0;movable=0;rotatable=0;deletable=0;editable=0;locked=1;connectable=0;" parent="1" vertex="1">
          <mxGeometry x="2035.0040363012467" y="707.5000471311116" width="100" height="30" as="geometry" />
        </mxCell>
        <mxCell id="gIwlXGtRDfr9pe6k1q0f-313" style="edgeStyle=orthogonalEdgeStyle;rounded=0;orthogonalLoop=1;jettySize=auto;html=1;entryX=0;entryY=0.5;entryDx=0;entryDy=0;movable=0;resizable=0;rotatable=0;deletable=0;editable=0;locked=1;connectable=0;" parent="1" source="gIwlXGtRDfr9pe6k1q0f-314" target="gIwlXGtRDfr9pe6k1q0f-310" edge="1">
          <mxGeometry relative="1" as="geometry" />
        </mxCell>
        <mxCell id="gIwlXGtRDfr9pe6k1q0f-314" value="Admin" style="shape=umlActor;verticalLabelPosition=bottom;verticalAlign=top;html=1;outlineConnect=0;movable=0;resizable=0;rotatable=0;deletable=0;editable=0;locked=1;connectable=0;" parent="1" vertex="1">
          <mxGeometry x="1790" y="707.5" width="30" height="60" as="geometry" />
        </mxCell>
        <mxCell id="gIwlXGtRDfr9pe6k1q0f-318" style="rounded=0;orthogonalLoop=1;jettySize=auto;html=1;exitX=1;exitY=0.3333333333333333;exitDx=0;exitDy=0;exitPerimeter=0;entryX=0;entryY=1;entryDx=0;entryDy=0;movable=0;resizable=0;rotatable=0;deletable=0;editable=0;locked=1;connectable=0;" parent="1" source="gIwlXGtRDfr9pe6k1q0f-317" target="gIwlXGtRDfr9pe6k1q0f-68" edge="1">
          <mxGeometry relative="1" as="geometry" />
        </mxCell>
        <mxCell id="gIwlXGtRDfr9pe6k1q0f-317" value="Admin" style="shape=umlActor;verticalLabelPosition=bottom;verticalAlign=top;html=1;outlineConnect=0;movable=0;resizable=0;rotatable=0;deletable=0;editable=0;locked=1;connectable=0;" parent="1" vertex="1">
          <mxGeometry x="150" y="485" width="30" height="60" as="geometry" />
        </mxCell>
        <mxCell id="gIwlXGtRDfr9pe6k1q0f-321" value="" style="group;movable=0;resizable=0;rotatable=0;deletable=0;editable=0;locked=1;connectable=0;" parent="1" vertex="1" connectable="0">
          <mxGeometry x="-695" y="340" width="120" height="80" as="geometry" />
        </mxCell>
        <mxCell id="gIwlXGtRDfr9pe6k1q0f-322" value="Login" style="ellipse;whiteSpace=wrap;html=1;movable=0;resizable=0;rotatable=0;deletable=0;editable=0;locked=1;connectable=0;" parent="gIwlXGtRDfr9pe6k1q0f-321" vertex="1">
          <mxGeometry y="30" width="120" height="50" as="geometry" />
        </mxCell>
        <mxCell id="gIwlXGtRDfr9pe6k1q0f-323" value="UC-2" style="text;html=1;align=center;verticalAlign=middle;resizable=0;points=[];autosize=1;strokeColor=none;fillColor=none;movable=0;rotatable=0;deletable=0;editable=0;locked=1;connectable=0;" parent="gIwlXGtRDfr9pe6k1q0f-321" vertex="1">
          <mxGeometry x="35" width="50" height="30" as="geometry" />
        </mxCell>
        <mxCell id="gIwlXGtRDfr9pe6k1q0f-325" value="Update field" style="ellipse;whiteSpace=wrap;html=1;movable=0;resizable=0;rotatable=0;deletable=0;editable=0;locked=1;connectable=0;" parent="1" vertex="1">
          <mxGeometry x="2200" y="785" width="160" height="60" as="geometry" />
        </mxCell>
        <mxCell id="gIwlXGtRDfr9pe6k1q0f-326" value="Delete field" style="ellipse;whiteSpace=wrap;html=1;movable=0;resizable=0;rotatable=0;deletable=0;editable=0;locked=1;connectable=0;" parent="1" vertex="1">
          <mxGeometry x="2140" y="890" width="160" height="60" as="geometry" />
        </mxCell>
        <mxCell id="gIwlXGtRDfr9pe6k1q0f-327" value="Statistic" style="ellipse;whiteSpace=wrap;html=1;movable=0;resizable=0;rotatable=0;deletable=0;editable=0;locked=1;connectable=0;" parent="1" vertex="1">
          <mxGeometry x="1900" y="890" width="160" height="60" as="geometry" />
        </mxCell>
        <mxCell id="gIwlXGtRDfr9pe6k1q0f-331" value="&amp;lt;&amp;lt; include &amp;gt;&amp;gt;" style="text;html=1;align=center;verticalAlign=middle;resizable=0;points=[];autosize=1;strokeColor=none;fillColor=none;rotation=0;movable=0;rotatable=0;deletable=0;editable=0;locked=1;connectable=0;" parent="1" vertex="1">
          <mxGeometry x="2090" y="760" width="100" height="30" as="geometry" />
        </mxCell>
        <mxCell id="gIwlXGtRDfr9pe6k1q0f-332" value="&amp;lt;&amp;lt; include &amp;gt;&amp;gt;" style="text;html=1;align=center;verticalAlign=middle;resizable=0;points=[];autosize=1;strokeColor=none;fillColor=none;rotation=0;movable=0;rotatable=0;deletable=0;editable=0;locked=1;connectable=0;" parent="1" vertex="1">
          <mxGeometry x="1890" y="815" width="100" height="30" as="geometry" />
        </mxCell>
        <mxCell id="gIwlXGtRDfr9pe6k1q0f-333" value="&amp;lt;&amp;lt; include &amp;gt;&amp;gt;" style="text;html=1;align=center;verticalAlign=middle;resizable=0;points=[];autosize=1;strokeColor=none;fillColor=none;rotation=0;movable=0;rotatable=0;deletable=0;editable=0;locked=1;connectable=0;" parent="1" vertex="1">
          <mxGeometry x="2020" y="840" width="100" height="30" as="geometry" />
        </mxCell>
        <mxCell id="gIwlXGtRDfr9pe6k1q0f-334" value="" style="rounded=0;whiteSpace=wrap;html=1;movable=0;resizable=0;rotatable=0;deletable=0;editable=0;locked=1;connectable=0;" parent="1" vertex="1">
          <mxGeometry x="1830" y="410" width="510" height="160" as="geometry" />
        </mxCell>
        <mxCell id="gIwlXGtRDfr9pe6k1q0f-335" value="&lt;font style=&quot;font-size: 14px;&quot;&gt;UC-10 Sending mail use case diagram&lt;/font&gt;" style="text;html=1;align=center;verticalAlign=middle;resizable=0;points=[];autosize=1;strokeColor=none;fillColor=none;fontStyle=1;movable=0;rotatable=0;deletable=0;editable=0;locked=1;connectable=0;" parent="1" vertex="1">
          <mxGeometry x="1960" y="422.5" width="260" height="30" as="geometry" />
        </mxCell>
        <mxCell id="gIwlXGtRDfr9pe6k1q0f-336" style="rounded=0;orthogonalLoop=1;jettySize=auto;html=1;exitX=1;exitY=0.5;exitDx=0;exitDy=0;dashed=1;dashPattern=8 8;entryX=0;entryY=0.5;entryDx=0;entryDy=0;movable=0;resizable=0;rotatable=0;deletable=0;editable=0;locked=1;connectable=0;" parent="1" source="gIwlXGtRDfr9pe6k1q0f-340" target="gIwlXGtRDfr9pe6k1q0f-351" edge="1">
          <mxGeometry relative="1" as="geometry">
            <mxPoint x="2160" y="500" as="targetPoint" />
          </mxGeometry>
        </mxCell>
        <mxCell id="gIwlXGtRDfr9pe6k1q0f-340" value="Classifier mail" style="ellipse;whiteSpace=wrap;html=1;movable=0;resizable=0;rotatable=0;deletable=0;editable=0;locked=1;connectable=0;" parent="1" vertex="1">
          <mxGeometry x="1870" y="470" width="140" height="60" as="geometry" />
        </mxCell>
        <mxCell id="gIwlXGtRDfr9pe6k1q0f-343" style="edgeStyle=orthogonalEdgeStyle;rounded=0;orthogonalLoop=1;jettySize=auto;html=1;entryX=0;entryY=0.5;entryDx=0;entryDy=0;movable=0;resizable=0;rotatable=0;deletable=0;editable=0;locked=1;connectable=0;" parent="1" source="gIwlXGtRDfr9pe6k1q0f-344" target="gIwlXGtRDfr9pe6k1q0f-340" edge="1">
          <mxGeometry relative="1" as="geometry" />
        </mxCell>
        <mxCell id="gIwlXGtRDfr9pe6k1q0f-344" value="System" style="shape=umlActor;verticalLabelPosition=bottom;verticalAlign=top;html=1;outlineConnect=0;movable=0;resizable=0;rotatable=0;deletable=0;editable=0;locked=1;connectable=0;" parent="1" vertex="1">
          <mxGeometry x="1750" y="470" width="30" height="60" as="geometry" />
        </mxCell>
        <mxCell id="gIwlXGtRDfr9pe6k1q0f-351" value="Send Verify/Confirm mail" style="ellipse;whiteSpace=wrap;html=1;movable=0;resizable=0;rotatable=0;deletable=0;editable=0;locked=1;connectable=0;" parent="1" vertex="1">
          <mxGeometry x="2160" y="471.25" width="160" height="60" as="geometry" />
        </mxCell>
        <mxCell id="gIwlXGtRDfr9pe6k1q0f-352" value="&amp;lt;&amp;lt; include&amp;nbsp;&amp;gt;&amp;gt;" style="text;html=1;align=center;verticalAlign=middle;resizable=0;points=[];autosize=1;strokeColor=none;fillColor=none;rotation=0;movable=0;rotatable=0;deletable=0;editable=0;locked=1;connectable=0;" parent="1" vertex="1">
          <mxGeometry x="2035" y="466.25" width="100" height="30" as="geometry" />
        </mxCell>
        <mxCell id="gIwlXGtRDfr9pe6k1q0f-228" value="" style="group;movable=0;resizable=0;rotatable=0;deletable=0;editable=0;locked=1;connectable=0;" parent="1" vertex="1" connectable="0">
          <mxGeometry x="-480" y="410" width="150" height="80" as="geometry" />
        </mxCell>
        <mxCell id="gIwlXGtRDfr9pe6k1q0f-229" value="Cancel/Reschedule" style="ellipse;whiteSpace=wrap;html=1;movable=0;resizable=0;rotatable=0;deletable=0;editable=0;locked=1;connectable=0;" parent="gIwlXGtRDfr9pe6k1q0f-228" vertex="1">
          <mxGeometry y="30" width="150" height="50" as="geometry" />
        </mxCell>
        <mxCell id="gIwlXGtRDfr9pe6k1q0f-230" value="UC-9" style="text;html=1;align=center;verticalAlign=middle;resizable=0;points=[];autosize=1;strokeColor=none;fillColor=none;movable=0;rotatable=0;deletable=0;editable=0;locked=1;connectable=0;" parent="gIwlXGtRDfr9pe6k1q0f-228" vertex="1">
          <mxGeometry x="50" width="50" height="30" as="geometry" />
        </mxCell>
        <mxCell id="5zTkcHhDiUD0QSWI-N54-3" value="" style="group;movable=0;resizable=0;rotatable=0;deletable=0;editable=0;locked=1;connectable=0;" vertex="1" connectable="0" parent="1">
          <mxGeometry x="-710" y="748.75" width="150" height="80" as="geometry" />
        </mxCell>
        <mxCell id="gIwlXGtRDfr9pe6k1q0f-223" value="Send support request" style="ellipse;whiteSpace=wrap;html=1;movable=0;resizable=0;rotatable=0;deletable=0;editable=0;locked=1;connectable=0;" parent="5zTkcHhDiUD0QSWI-N54-3" vertex="1">
          <mxGeometry y="30" width="150" height="50" as="geometry" />
        </mxCell>
        <mxCell id="gIwlXGtRDfr9pe6k1q0f-224" value="UC-5" style="text;html=1;align=center;verticalAlign=middle;resizable=0;points=[];autosize=1;strokeColor=none;fillColor=none;movable=0;rotatable=0;deletable=0;editable=0;locked=1;connectable=0;" parent="5zTkcHhDiUD0QSWI-N54-3" vertex="1">
          <mxGeometry x="50" width="50" height="30" as="geometry" />
        </mxCell>
        <mxCell id="5zTkcHhDiUD0QSWI-N54-4" value="" style="group;movable=0;resizable=0;rotatable=0;deletable=0;editable=0;locked=1;connectable=0;" vertex="1" connectable="0" parent="1">
          <mxGeometry x="-465" y="756.25" width="120" height="80" as="geometry" />
        </mxCell>
        <mxCell id="gIwlXGtRDfr9pe6k1q0f-239" value="Search fields" style="ellipse;whiteSpace=wrap;html=1;movable=0;resizable=0;rotatable=0;deletable=0;editable=0;locked=1;connectable=0;" parent="5zTkcHhDiUD0QSWI-N54-4" vertex="1">
          <mxGeometry y="30" width="120" height="50" as="geometry" />
        </mxCell>
        <mxCell id="gIwlXGtRDfr9pe6k1q0f-243" value="UC-6" style="text;html=1;align=center;verticalAlign=middle;resizable=0;points=[];autosize=1;strokeColor=none;fillColor=none;movable=0;rotatable=0;deletable=0;editable=0;locked=1;connectable=0;" parent="5zTkcHhDiUD0QSWI-N54-4" vertex="1">
          <mxGeometry x="35" width="50" height="30" as="geometry" />
        </mxCell>
        <mxCell id="5zTkcHhDiUD0QSWI-N54-27" value="" style="group;movable=0;resizable=0;rotatable=0;deletable=0;editable=0;locked=1;connectable=0;" vertex="1" connectable="0" parent="1">
          <mxGeometry x="-695" y="473" width="120" height="80" as="geometry" />
        </mxCell>
        <mxCell id="gIwlXGtRDfr9pe6k1q0f-219" value="Logout" style="ellipse;whiteSpace=wrap;html=1;movable=0;resizable=0;rotatable=0;deletable=0;editable=0;locked=1;connectable=0;" parent="5zTkcHhDiUD0QSWI-N54-27" vertex="1">
          <mxGeometry y="30" width="120" height="50" as="geometry" />
        </mxCell>
        <mxCell id="gIwlXGtRDfr9pe6k1q0f-220" value="UC3" style="text;html=1;align=center;verticalAlign=middle;resizable=0;points=[];autosize=1;strokeColor=none;fillColor=none;movable=0;rotatable=0;deletable=0;editable=0;locked=1;connectable=0;" parent="5zTkcHhDiUD0QSWI-N54-27" vertex="1">
          <mxGeometry x="35" width="50" height="30" as="geometry" />
        </mxCell>
        <mxCell id="5zTkcHhDiUD0QSWI-N54-32" style="edgeStyle=orthogonalEdgeStyle;rounded=0;orthogonalLoop=1;jettySize=auto;html=1;entryX=0;entryY=0.5;entryDx=0;entryDy=0;dashed=1;dashPattern=8 8;movable=0;resizable=0;rotatable=0;deletable=0;editable=0;locked=1;connectable=0;" edge="1" parent="1" source="gIwlXGtRDfr9pe6k1q0f-200" target="gIwlXGtRDfr9pe6k1q0f-204">
          <mxGeometry relative="1" as="geometry">
            <mxPoint x="-399" y="325" as="targetPoint" />
          </mxGeometry>
        </mxCell>
        <mxCell id="5zTkcHhDiUD0QSWI-N54-37" value="" style="group;movable=0;resizable=0;rotatable=0;deletable=0;editable=0;locked=1;connectable=0;" vertex="1" connectable="0" parent="1">
          <mxGeometry x="-710" y="620" width="150" height="80" as="geometry" />
        </mxCell>
        <mxCell id="gIwlXGtRDfr9pe6k1q0f-216" value="Manage profile" style="ellipse;whiteSpace=wrap;html=1;movable=0;resizable=0;rotatable=0;deletable=0;editable=0;locked=1;connectable=0;" parent="5zTkcHhDiUD0QSWI-N54-37" vertex="1">
          <mxGeometry y="30" width="150" height="50" as="geometry" />
        </mxCell>
        <mxCell id="gIwlXGtRDfr9pe6k1q0f-217" value="UC-4" style="text;html=1;align=center;verticalAlign=middle;resizable=0;points=[];autosize=1;strokeColor=none;fillColor=none;movable=0;rotatable=0;deletable=0;editable=0;locked=1;connectable=0;" parent="5zTkcHhDiUD0QSWI-N54-37" vertex="1">
          <mxGeometry x="50" width="50" height="30" as="geometry" />
        </mxCell>
        <mxCell id="5zTkcHhDiUD0QSWI-N54-86" style="edgeStyle=orthogonalEdgeStyle;rounded=0;orthogonalLoop=1;jettySize=auto;html=1;entryX=0;entryY=0.5;entryDx=0;entryDy=0;strokeColor=#007FFF;strokeWidth=2;movable=0;resizable=0;rotatable=0;deletable=0;editable=0;locked=1;connectable=0;" edge="1" parent="1" source="5zTkcHhDiUD0QSWI-N54-38" target="gIwlXGtRDfr9pe6k1q0f-200">
          <mxGeometry relative="1" as="geometry">
            <Array as="points">
              <mxPoint x="-755" y="272" />
            </Array>
          </mxGeometry>
        </mxCell>
        <mxCell id="5zTkcHhDiUD0QSWI-N54-87" style="edgeStyle=orthogonalEdgeStyle;rounded=0;orthogonalLoop=1;jettySize=auto;html=1;entryX=0;entryY=0.5;entryDx=0;entryDy=0;strokeWidth=2;strokeColor=#007FFF;movable=0;resizable=0;rotatable=0;deletable=0;editable=0;locked=1;connectable=0;" edge="1" parent="1" source="5zTkcHhDiUD0QSWI-N54-38" target="gIwlXGtRDfr9pe6k1q0f-322">
          <mxGeometry relative="1" as="geometry">
            <Array as="points">
              <mxPoint x="-755" y="395" />
            </Array>
          </mxGeometry>
        </mxCell>
        <mxCell id="5zTkcHhDiUD0QSWI-N54-88" style="edgeStyle=orthogonalEdgeStyle;rounded=0;orthogonalLoop=1;jettySize=auto;html=1;entryX=0;entryY=0.5;entryDx=0;entryDy=0;strokeColor=#007FFF;strokeWidth=2;movable=0;resizable=0;rotatable=0;deletable=0;editable=0;locked=1;connectable=0;" edge="1" parent="1" source="5zTkcHhDiUD0QSWI-N54-38" target="gIwlXGtRDfr9pe6k1q0f-219">
          <mxGeometry relative="1" as="geometry">
            <Array as="points">
              <mxPoint x="-755" y="528" />
            </Array>
          </mxGeometry>
        </mxCell>
        <mxCell id="5zTkcHhDiUD0QSWI-N54-89" style="edgeStyle=orthogonalEdgeStyle;rounded=0;orthogonalLoop=1;jettySize=auto;html=1;entryX=0;entryY=0.5;entryDx=0;entryDy=0;strokeColor=#007FFF;strokeWidth=2;movable=0;resizable=0;rotatable=0;deletable=0;editable=0;locked=1;connectable=0;" edge="1" parent="1" source="5zTkcHhDiUD0QSWI-N54-38" target="gIwlXGtRDfr9pe6k1q0f-216">
          <mxGeometry relative="1" as="geometry">
            <Array as="points">
              <mxPoint x="-755" y="675" />
            </Array>
          </mxGeometry>
        </mxCell>
        <mxCell id="5zTkcHhDiUD0QSWI-N54-90" style="edgeStyle=orthogonalEdgeStyle;rounded=0;orthogonalLoop=1;jettySize=auto;html=1;entryX=0;entryY=0.5;entryDx=0;entryDy=0;strokeColor=#007FFF;strokeWidth=2;movable=0;resizable=0;rotatable=0;deletable=0;editable=0;locked=1;connectable=0;" edge="1" parent="1" source="5zTkcHhDiUD0QSWI-N54-38" target="gIwlXGtRDfr9pe6k1q0f-223">
          <mxGeometry relative="1" as="geometry">
            <Array as="points">
              <mxPoint x="-755" y="804" />
            </Array>
          </mxGeometry>
        </mxCell>
        <mxCell id="5zTkcHhDiUD0QSWI-N54-93" style="edgeStyle=orthogonalEdgeStyle;rounded=0;orthogonalLoop=1;jettySize=auto;html=1;entryX=0;entryY=0.5;entryDx=0;entryDy=0;strokeWidth=2;strokeColor=#007FFF;movable=0;resizable=0;rotatable=0;deletable=0;editable=0;locked=1;connectable=0;" edge="1" parent="1" source="5zTkcHhDiUD0QSWI-N54-38" target="gIwlXGtRDfr9pe6k1q0f-229">
          <mxGeometry relative="1" as="geometry">
            <Array as="points">
              <mxPoint x="-510" y="965" />
              <mxPoint x="-510" y="465" />
            </Array>
          </mxGeometry>
        </mxCell>
        <mxCell id="5zTkcHhDiUD0QSWI-N54-124" style="edgeStyle=orthogonalEdgeStyle;rounded=0;orthogonalLoop=1;jettySize=auto;html=1;strokeWidth=2;strokeColor=#007FFF;movable=0;resizable=0;rotatable=0;deletable=0;editable=0;locked=1;connectable=0;" edge="1" parent="1" source="5zTkcHhDiUD0QSWI-N54-38" target="gIwlXGtRDfr9pe6k1q0f-239">
          <mxGeometry relative="1" as="geometry" />
        </mxCell>
        <mxCell id="5zTkcHhDiUD0QSWI-N54-38" value="&lt;span style=&quot;font-size: 15px;&quot;&gt;&lt;b&gt;User&lt;/b&gt;&lt;/span&gt;" style="shape=umlActor;verticalLabelPosition=bottom;verticalAlign=top;html=1;outlineConnect=0;movable=0;resizable=0;rotatable=0;deletable=0;editable=0;locked=1;connectable=0;" vertex="1" parent="1">
          <mxGeometry x="-770" y="935" width="30" height="60" as="geometry" />
        </mxCell>
        <mxCell id="5zTkcHhDiUD0QSWI-N54-53" value="&amp;lt;&amp;lt; include &amp;gt;&amp;gt;" style="text;html=1;align=center;verticalAlign=middle;resizable=0;points=[];autosize=1;strokeColor=none;fillColor=none;rotation=0;movable=0;rotatable=0;deletable=0;editable=0;locked=1;connectable=0;" vertex="1" parent="1">
          <mxGeometry x="-550" y="241.87" width="100" height="30" as="geometry" />
        </mxCell>
        <mxCell id="5zTkcHhDiUD0QSWI-N54-106" style="edgeStyle=orthogonalEdgeStyle;rounded=0;orthogonalLoop=1;jettySize=auto;html=1;entryX=1;entryY=0.5;entryDx=0;entryDy=0;strokeWidth=2;strokeColor=#00FF00;movable=0;resizable=0;rotatable=0;deletable=0;editable=0;locked=1;connectable=0;" edge="1" parent="1" source="5zTkcHhDiUD0QSWI-N54-57" target="gIwlXGtRDfr9pe6k1q0f-204">
          <mxGeometry relative="1" as="geometry" />
        </mxCell>
        <mxCell id="5zTkcHhDiUD0QSWI-N54-57" value="&lt;span style=&quot;font-size: 15px;&quot;&gt;&lt;b&gt;System&lt;/b&gt;&lt;/span&gt;" style="shape=umlActor;verticalLabelPosition=bottom;verticalAlign=top;html=1;outlineConnect=0;movable=0;resizable=0;rotatable=0;deletable=0;editable=0;locked=1;connectable=0;" vertex="1" parent="1">
          <mxGeometry x="-170" y="45" width="30" height="60" as="geometry" />
        </mxCell>
        <mxCell id="5zTkcHhDiUD0QSWI-N54-80" value="&amp;lt;&amp;lt; include &amp;gt;&amp;gt;" style="text;html=1;align=center;verticalAlign=middle;resizable=0;points=[];autosize=1;strokeColor=none;fillColor=none;rotation=0;movable=0;rotatable=0;deletable=0;editable=0;locked=1;connectable=0;" vertex="1" parent="1">
          <mxGeometry x="-335" y="311" width="100" height="30" as="geometry" />
        </mxCell>
        <mxCell id="5zTkcHhDiUD0QSWI-N54-85" value="" style="group;movable=0;resizable=0;rotatable=0;deletable=0;editable=0;locked=1;connectable=0;" vertex="1" connectable="0" parent="1">
          <mxGeometry x="-465" y="625.5" width="120" height="80" as="geometry" />
        </mxCell>
        <mxCell id="gIwlXGtRDfr9pe6k1q0f-232" value="View schedule" style="ellipse;whiteSpace=wrap;html=1;movable=0;resizable=0;rotatable=0;deletable=0;editable=0;locked=1;connectable=0;" parent="5zTkcHhDiUD0QSWI-N54-85" vertex="1">
          <mxGeometry y="30" width="120" height="50" as="geometry" />
        </mxCell>
        <mxCell id="gIwlXGtRDfr9pe6k1q0f-233" value="UC-7" style="text;html=1;align=center;verticalAlign=middle;resizable=0;points=[];autosize=1;strokeColor=none;fillColor=none;movable=0;rotatable=0;deletable=0;editable=0;locked=1;connectable=0;" parent="5zTkcHhDiUD0QSWI-N54-85" vertex="1">
          <mxGeometry x="35" width="50" height="30" as="geometry" />
        </mxCell>
        <mxCell id="5zTkcHhDiUD0QSWI-N54-95" style="edgeStyle=orthogonalEdgeStyle;rounded=0;orthogonalLoop=1;jettySize=auto;html=1;strokeWidth=2;dashed=1;dashPattern=8 8;movable=0;resizable=0;rotatable=0;deletable=0;editable=0;locked=1;connectable=0;" edge="1" parent="1" source="gIwlXGtRDfr9pe6k1q0f-230" target="gIwlXGtRDfr9pe6k1q0f-204">
          <mxGeometry relative="1" as="geometry" />
        </mxCell>
        <mxCell id="5zTkcHhDiUD0QSWI-N54-96" style="edgeStyle=orthogonalEdgeStyle;rounded=0;orthogonalLoop=1;jettySize=auto;html=1;entryX=0.5;entryY=1;entryDx=0;entryDy=0;strokeWidth=2;dashed=1;dashPattern=8 8;movable=0;resizable=0;rotatable=0;deletable=0;editable=0;locked=1;connectable=0;" edge="1" parent="1" source="gIwlXGtRDfr9pe6k1q0f-161" target="gIwlXGtRDfr9pe6k1q0f-204">
          <mxGeometry relative="1" as="geometry">
            <Array as="points">
              <mxPoint x="-290" y="395" />
              <mxPoint x="-335" y="395" />
            </Array>
          </mxGeometry>
        </mxCell>
        <mxCell id="5zTkcHhDiUD0QSWI-N54-98" style="edgeStyle=orthogonalEdgeStyle;rounded=0;orthogonalLoop=1;jettySize=auto;html=1;entryX=0.5;entryY=1;entryDx=0;entryDy=0;strokeWidth=2;dashed=1;dashPattern=8 8;movable=0;resizable=0;rotatable=0;deletable=0;editable=0;locked=1;connectable=0;" edge="1" parent="1" source="gIwlXGtRDfr9pe6k1q0f-209" target="gIwlXGtRDfr9pe6k1q0f-204">
          <mxGeometry relative="1" as="geometry" />
        </mxCell>
        <mxCell id="5zTkcHhDiUD0QSWI-N54-105" value="&amp;lt;&amp;lt; include &amp;gt;&amp;gt;" style="text;html=1;align=center;verticalAlign=middle;resizable=0;points=[];autosize=1;strokeColor=none;fillColor=none;rotation=0;movable=0;rotatable=0;deletable=0;editable=0;locked=1;connectable=0;" vertex="1" parent="1">
          <mxGeometry x="-280" y="705.5" width="100" height="30" as="geometry" />
        </mxCell>
        <mxCell id="5zTkcHhDiUD0QSWI-N54-111" style="rounded=0;orthogonalLoop=1;jettySize=auto;html=1;entryX=0;entryY=0.5;entryDx=0;entryDy=0;movable=0;resizable=0;rotatable=0;deletable=0;editable=0;locked=1;connectable=0;" edge="1" parent="1" source="5zTkcHhDiUD0QSWI-N54-110" target="gIwlXGtRDfr9pe6k1q0f-91">
          <mxGeometry relative="1" as="geometry" />
        </mxCell>
        <mxCell id="5zTkcHhDiUD0QSWI-N54-110" value="Admin" style="shape=umlActor;verticalLabelPosition=bottom;verticalAlign=top;html=1;outlineConnect=0;movable=0;resizable=0;rotatable=0;deletable=0;editable=0;locked=1;connectable=0;" vertex="1" parent="1">
          <mxGeometry x="150" y="712.25" width="30" height="60" as="geometry" />
        </mxCell>
        <mxCell id="5zTkcHhDiUD0QSWI-N54-112" value="&amp;lt;&amp;lt; include &amp;gt;&amp;gt;" style="text;html=1;align=center;verticalAlign=middle;resizable=0;points=[];autosize=1;strokeColor=none;fillColor=none;rotation=0;movable=0;rotatable=0;deletable=0;editable=0;locked=1;connectable=0;" vertex="1" parent="1">
          <mxGeometry x="-345" y="780" width="100" height="30" as="geometry" />
        </mxCell>
        <mxCell id="5zTkcHhDiUD0QSWI-N54-118" style="edgeStyle=orthogonalEdgeStyle;rounded=0;orthogonalLoop=1;jettySize=auto;html=1;entryX=0;entryY=0.5;entryDx=0;entryDy=0;dashed=1;dashPattern=8 8;strokeWidth=2;movable=0;resizable=0;rotatable=0;deletable=0;editable=0;locked=1;connectable=0;" edge="1" parent="1" source="gIwlXGtRDfr9pe6k1q0f-233" target="gIwlXGtRDfr9pe6k1q0f-160">
          <mxGeometry relative="1" as="geometry">
            <Array as="points">
              <mxPoint x="-400" y="566" />
            </Array>
          </mxGeometry>
        </mxCell>
        <mxCell id="5zTkcHhDiUD0QSWI-N54-119" value="&amp;lt;&amp;lt; include &amp;gt;&amp;gt;" style="text;html=1;align=center;verticalAlign=middle;resizable=0;points=[];autosize=1;strokeColor=none;fillColor=none;rotation=0;movable=0;rotatable=0;deletable=0;editable=0;locked=1;connectable=0;" vertex="1" parent="1">
          <mxGeometry x="-490" y="586.25" width="100" height="30" as="geometry" />
        </mxCell>
        <mxCell id="5zTkcHhDiUD0QSWI-N54-120" style="edgeStyle=orthogonalEdgeStyle;rounded=0;orthogonalLoop=1;jettySize=auto;html=1;entryX=0.5;entryY=1;entryDx=0;entryDy=0;strokeWidth=2;dashed=1;dashPattern=8 8;movable=0;resizable=0;rotatable=0;deletable=0;editable=0;locked=1;connectable=0;" edge="1" parent="1" source="gIwlXGtRDfr9pe6k1q0f-243" target="5zTkcHhDiUD0QSWI-N54-85">
          <mxGeometry relative="1" as="geometry" />
        </mxCell>
        <mxCell id="5zTkcHhDiUD0QSWI-N54-121" value="&amp;lt;&amp;lt; extend &amp;gt;&amp;gt;" style="text;html=1;align=center;verticalAlign=middle;resizable=0;points=[];autosize=1;strokeColor=none;fillColor=none;rotation=0;movable=0;rotatable=0;deletable=0;editable=0;locked=1;connectable=0;" vertex="1" parent="1">
          <mxGeometry x="-495" y="722.5" width="90" height="30" as="geometry" />
        </mxCell>
        <mxCell id="5zTkcHhDiUD0QSWI-N54-122" style="edgeStyle=orthogonalEdgeStyle;rounded=0;orthogonalLoop=1;jettySize=auto;html=1;entryX=1;entryY=0.5;entryDx=0;entryDy=0;strokeWidth=2;dashed=1;dashPattern=8 8;movable=0;resizable=0;rotatable=0;deletable=0;editable=0;locked=1;connectable=0;" edge="1" parent="1" source="gIwlXGtRDfr9pe6k1q0f-197" target="gIwlXGtRDfr9pe6k1q0f-239">
          <mxGeometry relative="1" as="geometry" />
        </mxCell>
        <mxCell id="5zTkcHhDiUD0QSWI-N54-123" style="edgeStyle=orthogonalEdgeStyle;rounded=0;orthogonalLoop=1;jettySize=auto;html=1;entryX=1;entryY=0.5;entryDx=0;entryDy=0;strokeWidth=2;dashed=1;dashPattern=8 8;movable=0;resizable=0;rotatable=0;deletable=0;editable=0;locked=1;connectable=0;" edge="1" parent="1" source="gIwlXGtRDfr9pe6k1q0f-198" target="gIwlXGtRDfr9pe6k1q0f-232">
          <mxGeometry relative="1" as="geometry">
            <Array as="points">
              <mxPoint x="-180" y="681" />
            </Array>
          </mxGeometry>
        </mxCell>
        <mxCell id="5zTkcHhDiUD0QSWI-N54-125" value="" style="rounded=0;whiteSpace=wrap;html=1;movable=0;resizable=0;rotatable=0;deletable=0;editable=0;locked=1;connectable=0;" vertex="1" parent="1">
          <mxGeometry x="1830" y="77.5" width="510" height="270" as="geometry" />
        </mxCell>
        <mxCell id="5zTkcHhDiUD0QSWI-N54-126" value="&lt;font style=&quot;font-size: 14px;&quot;&gt;UC-11 Confirm/Reject booking use case diagram&lt;/font&gt;" style="text;html=1;align=center;verticalAlign=middle;resizable=0;points=[];autosize=1;strokeColor=none;fillColor=none;fontStyle=1;movable=0;rotatable=0;deletable=0;editable=0;locked=1;connectable=0;" vertex="1" parent="1">
          <mxGeometry x="1925" y="90" width="330" height="30" as="geometry" />
        </mxCell>
        <mxCell id="5zTkcHhDiUD0QSWI-N54-127" style="rounded=0;orthogonalLoop=1;jettySize=auto;html=1;exitX=1;exitY=0.5;exitDx=0;exitDy=0;dashed=1;dashPattern=8 8;entryX=0;entryY=0.5;entryDx=0;entryDy=0;movable=0;resizable=0;rotatable=0;deletable=0;editable=0;locked=1;connectable=0;" edge="1" parent="1" source="5zTkcHhDiUD0QSWI-N54-129" target="5zTkcHhDiUD0QSWI-N54-134">
          <mxGeometry relative="1" as="geometry">
            <mxPoint x="2160" y="167.5" as="targetPoint" />
          </mxGeometry>
        </mxCell>
        <mxCell id="5zTkcHhDiUD0QSWI-N54-128" style="rounded=0;orthogonalLoop=1;jettySize=auto;html=1;exitX=0.5;exitY=1;exitDx=0;exitDy=0;entryX=0.5;entryY=0;entryDx=0;entryDy=0;dashed=1;dashPattern=8 8;movable=0;resizable=0;rotatable=0;deletable=0;editable=0;locked=1;connectable=0;" edge="1" parent="1" source="5zTkcHhDiUD0QSWI-N54-129" target="5zTkcHhDiUD0QSWI-N54-132">
          <mxGeometry relative="1" as="geometry" />
        </mxCell>
        <mxCell id="5zTkcHhDiUD0QSWI-N54-129" value="Confirm/Reject booking" style="ellipse;whiteSpace=wrap;html=1;movable=0;resizable=0;rotatable=0;deletable=0;editable=0;locked=1;connectable=0;" vertex="1" parent="1">
          <mxGeometry x="1870" y="137.5" width="140" height="60" as="geometry" />
        </mxCell>
        <mxCell id="5zTkcHhDiUD0QSWI-N54-130" style="edgeStyle=orthogonalEdgeStyle;rounded=0;orthogonalLoop=1;jettySize=auto;html=1;entryX=0;entryY=0.5;entryDx=0;entryDy=0;movable=0;resizable=0;rotatable=0;deletable=0;editable=0;locked=1;connectable=0;" edge="1" parent="1" source="5zTkcHhDiUD0QSWI-N54-131" target="5zTkcHhDiUD0QSWI-N54-129">
          <mxGeometry relative="1" as="geometry" />
        </mxCell>
        <mxCell id="5zTkcHhDiUD0QSWI-N54-131" value="Admin" style="shape=umlActor;verticalLabelPosition=bottom;verticalAlign=top;html=1;outlineConnect=0;movable=0;resizable=0;rotatable=0;deletable=0;editable=0;locked=1;connectable=0;" vertex="1" parent="1">
          <mxGeometry x="1750" y="137.5" width="30" height="60" as="geometry" />
        </mxCell>
        <mxCell id="5zTkcHhDiUD0QSWI-N54-132" value="Enter reason" style="ellipse;whiteSpace=wrap;html=1;movable=0;resizable=0;rotatable=0;deletable=0;editable=0;locked=1;connectable=0;" vertex="1" parent="1">
          <mxGeometry x="2000" y="258.75" width="160" height="60" as="geometry" />
        </mxCell>
        <mxCell id="5zTkcHhDiUD0QSWI-N54-133" value="&amp;lt;&amp;lt; include &amp;gt;&amp;gt;" style="text;html=1;align=center;verticalAlign=middle;resizable=0;points=[];autosize=1;strokeColor=none;fillColor=none;rotation=0;movable=0;rotatable=0;deletable=0;editable=0;locked=1;connectable=0;" vertex="1" parent="1">
          <mxGeometry x="1920" y="228.75" width="100" height="30" as="geometry" />
        </mxCell>
        <mxCell id="5zTkcHhDiUD0QSWI-N54-134" value="Send Verify/Confirm mail" style="ellipse;whiteSpace=wrap;html=1;movable=0;resizable=0;rotatable=0;deletable=0;editable=0;locked=1;connectable=0;" vertex="1" parent="1">
          <mxGeometry x="2160" y="138.75" width="160" height="60" as="geometry" />
        </mxCell>
        <mxCell id="5zTkcHhDiUD0QSWI-N54-135" value="&amp;lt;&amp;lt; include&amp;nbsp;&amp;gt;&amp;gt;" style="text;html=1;align=center;verticalAlign=middle;resizable=0;points=[];autosize=1;strokeColor=none;fillColor=none;rotation=0;movable=0;rotatable=0;deletable=0;editable=0;locked=1;connectable=0;" vertex="1" parent="1">
          <mxGeometry x="2035" y="133.75" width="100" height="30" as="geometry" />
        </mxCell>
      </root>
    </mxGraphModel>
  </diagram>
</mxfile>
